<mxfile host="Electron" modified="2023-07-27T11:41:26.330Z" agent="Mozilla/5.0 (Windows NT 10.0; Win64; x64) AppleWebKit/537.36 (KHTML, like Gecko) draw.io/21.6.5 Chrome/114.0.5735.243 Electron/25.3.1 Safari/537.36" etag="wgqaxEDqfDLJV3hpHx7N" version="21.6.5" type="device" pages="3">
  <diagram name="Диаграмма прецендентов общая" id="kG0bZE2TS0YFtTgVBeDN">
    <mxGraphModel dx="1434" dy="844" grid="1" gridSize="10" guides="1" tooltips="1" connect="1" arrows="1" fold="1" page="1" pageScale="1" pageWidth="827" pageHeight="1169" math="0" shadow="0">
      <root>
        <mxCell id="0" />
        <mxCell id="1" parent="0" />
        <mxCell id="E9fU0pjIqUFsn0fYU31L-1" value="Пользователь без регистрации&lt;br&gt;" style="shape=umlActor;verticalLabelPosition=bottom;verticalAlign=top;html=1;" parent="1" vertex="1">
          <mxGeometry x="350" y="260" width="30" height="60" as="geometry" />
        </mxCell>
        <mxCell id="E9fU0pjIqUFsn0fYU31L-2" value="Авторизация" style="ellipse;whiteSpace=wrap;html=1;" parent="1" vertex="1">
          <mxGeometry x="670" y="60" width="120" height="80" as="geometry" />
        </mxCell>
        <mxCell id="E9fU0pjIqUFsn0fYU31L-3" value="Регистрация" style="ellipse;whiteSpace=wrap;html=1;" parent="1" vertex="1">
          <mxGeometry x="670" y="180" width="120" height="80" as="geometry" />
        </mxCell>
        <mxCell id="E9fU0pjIqUFsn0fYU31L-4" value="" style="endArrow=none;html=1;rounded=0;exitX=0;exitY=0.5;exitDx=0;exitDy=0;endFill=0;startArrow=classic;startFill=1;" parent="1" source="E9fU0pjIqUFsn0fYU31L-2" target="E9fU0pjIqUFsn0fYU31L-1" edge="1">
          <mxGeometry width="50" height="50" relative="1" as="geometry">
            <mxPoint x="640" y="310" as="sourcePoint" />
            <mxPoint x="690" y="260" as="targetPoint" />
          </mxGeometry>
        </mxCell>
        <mxCell id="E9fU0pjIqUFsn0fYU31L-5" value="" style="endArrow=none;html=1;rounded=0;exitX=0;exitY=0.5;exitDx=0;exitDy=0;entryX=1;entryY=0.3333333333333333;entryDx=0;entryDy=0;entryPerimeter=0;startArrow=classic;startFill=1;" parent="1" source="E9fU0pjIqUFsn0fYU31L-3" target="E9fU0pjIqUFsn0fYU31L-1" edge="1">
          <mxGeometry width="50" height="50" relative="1" as="geometry">
            <mxPoint x="570" y="140" as="sourcePoint" />
            <mxPoint x="430" y="230" as="targetPoint" />
          </mxGeometry>
        </mxCell>
        <mxCell id="E9fU0pjIqUFsn0fYU31L-6" value="Просмотр списка товаров" style="ellipse;whiteSpace=wrap;html=1;" parent="1" vertex="1">
          <mxGeometry x="670" y="290" width="120" height="80" as="geometry" />
        </mxCell>
        <mxCell id="E9fU0pjIqUFsn0fYU31L-7" value="" style="endArrow=none;html=1;rounded=0;exitX=0;exitY=0.5;exitDx=0;exitDy=0;entryX=1;entryY=0.3333333333333333;entryDx=0;entryDy=0;entryPerimeter=0;startArrow=classic;startFill=1;" parent="1" source="E9fU0pjIqUFsn0fYU31L-6" target="E9fU0pjIqUFsn0fYU31L-1" edge="1">
          <mxGeometry width="50" height="50" relative="1" as="geometry">
            <mxPoint x="680" y="230" as="sourcePoint" />
            <mxPoint x="390" y="290" as="targetPoint" />
          </mxGeometry>
        </mxCell>
        <mxCell id="E9fU0pjIqUFsn0fYU31L-8" value="Просмотр карточки товара" style="ellipse;whiteSpace=wrap;html=1;" parent="1" vertex="1">
          <mxGeometry x="680" y="400" width="120" height="80" as="geometry" />
        </mxCell>
        <mxCell id="E9fU0pjIqUFsn0fYU31L-9" value="" style="endArrow=none;html=1;rounded=0;exitX=0;exitY=0.5;exitDx=0;exitDy=0;startArrow=classic;startFill=1;" parent="1" source="E9fU0pjIqUFsn0fYU31L-8" edge="1">
          <mxGeometry width="50" height="50" relative="1" as="geometry">
            <mxPoint x="690" y="340" as="sourcePoint" />
            <mxPoint x="380" y="280" as="targetPoint" />
          </mxGeometry>
        </mxCell>
        <mxCell id="E9fU0pjIqUFsn0fYU31L-10" value="Простой пользователь" style="shape=umlActor;verticalLabelPosition=bottom;verticalAlign=top;html=1;outlineConnect=0;" parent="1" vertex="1">
          <mxGeometry x="100" y="585" width="30" height="60" as="geometry" />
        </mxCell>
        <mxCell id="E9fU0pjIqUFsn0fYU31L-11" value="" style="endArrow=none;html=1;rounded=0;entryX=0.5;entryY=0;entryDx=0;entryDy=0;entryPerimeter=0;startArrow=block;startFill=0;" parent="1" source="E9fU0pjIqUFsn0fYU31L-1" target="E9fU0pjIqUFsn0fYU31L-10" edge="1">
          <mxGeometry width="50" height="50" relative="1" as="geometry">
            <mxPoint x="115" y="280" as="sourcePoint" />
            <mxPoint x="140" y="240" as="targetPoint" />
            <Array as="points">
              <mxPoint x="115" y="290" />
            </Array>
          </mxGeometry>
        </mxCell>
        <mxCell id="E9fU0pjIqUFsn0fYU31L-12" value="Подписаться/отписаться на уведомление о смене цены" style="ellipse;whiteSpace=wrap;html=1;" parent="1" vertex="1">
          <mxGeometry x="400" y="470" width="120" height="80" as="geometry" />
        </mxCell>
        <mxCell id="E9fU0pjIqUFsn0fYU31L-13" value="" style="endArrow=none;html=1;rounded=0;exitX=0;exitY=0.5;exitDx=0;exitDy=0;startArrow=classic;startFill=1;entryX=1;entryY=0.3333333333333333;entryDx=0;entryDy=0;entryPerimeter=0;" parent="1" source="E9fU0pjIqUFsn0fYU31L-12" target="E9fU0pjIqUFsn0fYU31L-10" edge="1">
          <mxGeometry width="50" height="50" relative="1" as="geometry">
            <mxPoint x="610" y="575" as="sourcePoint" />
            <mxPoint x="300" y="515" as="targetPoint" />
          </mxGeometry>
        </mxCell>
        <mxCell id="E9fU0pjIqUFsn0fYU31L-14" value="Добавить/убрать в избранное" style="ellipse;whiteSpace=wrap;html=1;" parent="1" vertex="1">
          <mxGeometry x="430" y="580" width="120" height="80" as="geometry" />
        </mxCell>
        <mxCell id="E9fU0pjIqUFsn0fYU31L-15" value="" style="endArrow=none;html=1;rounded=0;exitX=0;exitY=0.5;exitDx=0;exitDy=0;startArrow=classic;startFill=1;entryX=1;entryY=0.3333333333333333;entryDx=0;entryDy=0;entryPerimeter=0;" parent="1" source="E9fU0pjIqUFsn0fYU31L-14" target="E9fU0pjIqUFsn0fYU31L-10" edge="1">
          <mxGeometry width="50" height="50" relative="1" as="geometry">
            <mxPoint x="640" y="685" as="sourcePoint" />
            <mxPoint x="160" y="715" as="targetPoint" />
          </mxGeometry>
        </mxCell>
        <mxCell id="E9fU0pjIqUFsn0fYU31L-16" value="Просматривать избранное" style="ellipse;whiteSpace=wrap;html=1;" parent="1" vertex="1">
          <mxGeometry x="430" y="690" width="120" height="80" as="geometry" />
        </mxCell>
        <mxCell id="E9fU0pjIqUFsn0fYU31L-17" value="" style="endArrow=none;html=1;rounded=0;exitX=0;exitY=0.5;exitDx=0;exitDy=0;startArrow=classic;startFill=1;entryX=1;entryY=0.3333333333333333;entryDx=0;entryDy=0;entryPerimeter=0;" parent="1" source="E9fU0pjIqUFsn0fYU31L-16" target="E9fU0pjIqUFsn0fYU31L-10" edge="1">
          <mxGeometry width="50" height="50" relative="1" as="geometry">
            <mxPoint x="640" y="795" as="sourcePoint" />
            <mxPoint x="160" y="825" as="targetPoint" />
          </mxGeometry>
        </mxCell>
        <mxCell id="E9fU0pjIqUFsn0fYU31L-33" style="edgeStyle=orthogonalEdgeStyle;rounded=0;orthogonalLoop=1;jettySize=auto;html=1;entryX=0;entryY=0.3333333333333333;entryDx=0;entryDy=0;entryPerimeter=0;exitX=0;exitY=0.3333333333333333;exitDx=0;exitDy=0;exitPerimeter=0;endArrow=block;endFill=0;" parent="1" source="E9fU0pjIqUFsn0fYU31L-25" target="E9fU0pjIqUFsn0fYU31L-10" edge="1">
          <mxGeometry relative="1" as="geometry">
            <mxPoint x="30" y="619.9999999999998" as="targetPoint" />
            <Array as="points">
              <mxPoint x="30" y="1004" />
              <mxPoint x="30" y="605" />
            </Array>
          </mxGeometry>
        </mxCell>
        <mxCell id="E9fU0pjIqUFsn0fYU31L-25" value="Администратор" style="shape=umlActor;verticalLabelPosition=bottom;verticalAlign=top;html=1;outlineConnect=0;" parent="1" vertex="1">
          <mxGeometry x="90" y="984" width="30" height="60" as="geometry" />
        </mxCell>
        <mxCell id="E9fU0pjIqUFsn0fYU31L-26" value="Добавлять/удалять/изменять информацию о товаре" style="ellipse;whiteSpace=wrap;html=1;" parent="1" vertex="1">
          <mxGeometry x="350" y="904" width="150" height="80" as="geometry" />
        </mxCell>
        <mxCell id="E9fU0pjIqUFsn0fYU31L-27" value="" style="endArrow=none;html=1;rounded=0;exitX=0;exitY=0.5;exitDx=0;exitDy=0;startArrow=classic;startFill=1;entryX=1;entryY=0.3333333333333333;entryDx=0;entryDy=0;entryPerimeter=0;" parent="1" source="E9fU0pjIqUFsn0fYU31L-26" target="E9fU0pjIqUFsn0fYU31L-25" edge="1">
          <mxGeometry width="50" height="50" relative="1" as="geometry">
            <mxPoint x="600" y="974" as="sourcePoint" />
            <mxPoint x="290" y="914" as="targetPoint" />
          </mxGeometry>
        </mxCell>
        <mxCell id="E9fU0pjIqUFsn0fYU31L-39" style="edgeStyle=orthogonalEdgeStyle;rounded=0;orthogonalLoop=1;jettySize=auto;html=1;endArrow=block;endFill=0;" parent="1" source="E9fU0pjIqUFsn0fYU31L-34" target="E9fU0pjIqUFsn0fYU31L-25" edge="1">
          <mxGeometry relative="1" as="geometry">
            <mxPoint x="80" y="1030" as="targetPoint" />
            <Array as="points">
              <mxPoint x="30" y="1600" />
              <mxPoint x="30" y="1010" />
            </Array>
          </mxGeometry>
        </mxCell>
        <mxCell id="E9fU0pjIqUFsn0fYU31L-34" value="Загрузчик данных" style="shape=umlActor;verticalLabelPosition=bottom;verticalAlign=top;html=1;outlineConnect=0;" parent="1" vertex="1">
          <mxGeometry x="90" y="1570" width="30" height="60" as="geometry" />
        </mxCell>
        <mxCell id="E9fU0pjIqUFsn0fYU31L-40" value="Массово добавлять цены на товары" style="ellipse;whiteSpace=wrap;html=1;" parent="1" vertex="1">
          <mxGeometry x="330" y="1450" width="150" height="80" as="geometry" />
        </mxCell>
        <mxCell id="E9fU0pjIqUFsn0fYU31L-41" value="Массово добавлять потенциальные товары" style="ellipse;whiteSpace=wrap;html=1;" parent="1" vertex="1">
          <mxGeometry x="339" y="1610" width="150" height="80" as="geometry" />
        </mxCell>
        <mxCell id="E9fU0pjIqUFsn0fYU31L-43" value="Объединять дубликаты" style="ellipse;whiteSpace=wrap;html=1;" parent="1" vertex="1">
          <mxGeometry x="350" y="1020" width="150" height="80" as="geometry" />
        </mxCell>
        <mxCell id="E9fU0pjIqUFsn0fYU31L-44" value="" style="endArrow=none;html=1;rounded=0;exitX=0;exitY=0.5;exitDx=0;exitDy=0;startArrow=classic;startFill=1;entryX=1;entryY=0.3333333333333333;entryDx=0;entryDy=0;entryPerimeter=0;" parent="1" source="E9fU0pjIqUFsn0fYU31L-43" target="E9fU0pjIqUFsn0fYU31L-25" edge="1">
          <mxGeometry width="50" height="50" relative="1" as="geometry">
            <mxPoint x="620" y="1040" as="sourcePoint" />
            <mxPoint x="140" y="1070" as="targetPoint" />
          </mxGeometry>
        </mxCell>
        <mxCell id="E9fU0pjIqUFsn0fYU31L-45" value="" style="endArrow=none;html=1;rounded=0;exitX=0;exitY=0.5;exitDx=0;exitDy=0;startArrow=classic;startFill=1;entryX=1;entryY=0.3333333333333333;entryDx=0;entryDy=0;entryPerimeter=0;" parent="1" source="E9fU0pjIqUFsn0fYU31L-40" target="E9fU0pjIqUFsn0fYU31L-34" edge="1">
          <mxGeometry width="50" height="50" relative="1" as="geometry">
            <mxPoint x="360" y="1250" as="sourcePoint" />
            <mxPoint x="115" y="1204" as="targetPoint" />
          </mxGeometry>
        </mxCell>
        <mxCell id="E9fU0pjIqUFsn0fYU31L-46" value="" style="endArrow=none;html=1;rounded=0;exitX=0;exitY=0.5;exitDx=0;exitDy=0;startArrow=classic;startFill=1;entryX=1;entryY=0.3333333333333333;entryDx=0;entryDy=0;entryPerimeter=0;" parent="1" source="E9fU0pjIqUFsn0fYU31L-41" target="E9fU0pjIqUFsn0fYU31L-34" edge="1">
          <mxGeometry width="50" height="50" relative="1" as="geometry">
            <mxPoint x="330" y="1420" as="sourcePoint" />
            <mxPoint x="115" y="1430" as="targetPoint" />
          </mxGeometry>
        </mxCell>
        <mxCell id="OC5QMx6u4czJzeQLjB-D-3" style="orthogonalLoop=1;jettySize=auto;html=1;entryX=0;entryY=0.5;entryDx=0;entryDy=0;strokeColor=default;rounded=0;" parent="1" source="OC5QMx6u4czJzeQLjB-D-1" target="OC5QMx6u4czJzeQLjB-D-2" edge="1">
          <mxGeometry relative="1" as="geometry" />
        </mxCell>
        <mxCell id="OC5QMx6u4czJzeQLjB-D-4" style="edgeStyle=orthogonalEdgeStyle;rounded=0;orthogonalLoop=1;jettySize=auto;html=1;endArrow=block;endFill=0;" parent="1" source="OC5QMx6u4czJzeQLjB-D-1" target="E9fU0pjIqUFsn0fYU31L-25" edge="1">
          <mxGeometry relative="1" as="geometry">
            <Array as="points">
              <mxPoint x="40" y="1300" />
              <mxPoint x="40" y="1030" />
            </Array>
          </mxGeometry>
        </mxCell>
        <mxCell id="OC5QMx6u4czJzeQLjB-D-1" value="Главный администратор" style="shape=umlActor;verticalLabelPosition=bottom;verticalAlign=top;html=1;outlineConnect=0;" parent="1" vertex="1">
          <mxGeometry x="110" y="1270" width="30" height="60" as="geometry" />
        </mxCell>
        <mxCell id="OC5QMx6u4czJzeQLjB-D-2" value="Изменять роли пользователей" style="ellipse;whiteSpace=wrap;html=1;" parent="1" vertex="1">
          <mxGeometry x="330" y="1260" width="150" height="80" as="geometry" />
        </mxCell>
      </root>
    </mxGraphModel>
  </diagram>
  <diagram name="Диаграмма прецендентов минимум" id="0geOa7O0rHfa2SPjS_Cm">
    <mxGraphModel dx="1434" dy="844" grid="1" gridSize="10" guides="1" tooltips="1" connect="1" arrows="1" fold="1" page="1" pageScale="1" pageWidth="827" pageHeight="1169" math="0" shadow="0">
      <root>
        <mxCell id="VAXQIbRnAaRtHH-JixKg-0" />
        <mxCell id="VAXQIbRnAaRtHH-JixKg-1" parent="VAXQIbRnAaRtHH-JixKg-0" />
        <mxCell id="VAXQIbRnAaRtHH-JixKg-2" value="Пользователь без регистрации&lt;br&gt;" style="shape=umlActor;verticalLabelPosition=bottom;verticalAlign=top;html=1;" parent="VAXQIbRnAaRtHH-JixKg-1" vertex="1">
          <mxGeometry x="350" y="260" width="30" height="60" as="geometry" />
        </mxCell>
        <mxCell id="VAXQIbRnAaRtHH-JixKg-3" value="Авторизация" style="ellipse;whiteSpace=wrap;html=1;" parent="VAXQIbRnAaRtHH-JixKg-1" vertex="1">
          <mxGeometry x="670" y="60" width="120" height="80" as="geometry" />
        </mxCell>
        <mxCell id="VAXQIbRnAaRtHH-JixKg-4" value="Регистрация" style="ellipse;whiteSpace=wrap;html=1;" parent="VAXQIbRnAaRtHH-JixKg-1" vertex="1">
          <mxGeometry x="670" y="180" width="120" height="80" as="geometry" />
        </mxCell>
        <mxCell id="VAXQIbRnAaRtHH-JixKg-5" value="" style="endArrow=none;html=1;rounded=0;exitX=0;exitY=0.5;exitDx=0;exitDy=0;endFill=0;startArrow=classic;startFill=1;" parent="VAXQIbRnAaRtHH-JixKg-1" source="VAXQIbRnAaRtHH-JixKg-3" target="VAXQIbRnAaRtHH-JixKg-2" edge="1">
          <mxGeometry width="50" height="50" relative="1" as="geometry">
            <mxPoint x="640" y="310" as="sourcePoint" />
            <mxPoint x="690" y="260" as="targetPoint" />
          </mxGeometry>
        </mxCell>
        <mxCell id="VAXQIbRnAaRtHH-JixKg-6" value="" style="endArrow=none;html=1;rounded=0;exitX=0;exitY=0.5;exitDx=0;exitDy=0;entryX=1;entryY=0.3333333333333333;entryDx=0;entryDy=0;entryPerimeter=0;startArrow=classic;startFill=1;" parent="VAXQIbRnAaRtHH-JixKg-1" source="VAXQIbRnAaRtHH-JixKg-4" target="VAXQIbRnAaRtHH-JixKg-2" edge="1">
          <mxGeometry width="50" height="50" relative="1" as="geometry">
            <mxPoint x="570" y="140" as="sourcePoint" />
            <mxPoint x="430" y="230" as="targetPoint" />
          </mxGeometry>
        </mxCell>
        <mxCell id="VAXQIbRnAaRtHH-JixKg-7" value="Просмотр списка товаров" style="ellipse;whiteSpace=wrap;html=1;" parent="VAXQIbRnAaRtHH-JixKg-1" vertex="1">
          <mxGeometry x="670" y="290" width="120" height="80" as="geometry" />
        </mxCell>
        <mxCell id="VAXQIbRnAaRtHH-JixKg-8" value="" style="endArrow=none;html=1;rounded=0;exitX=0;exitY=0.5;exitDx=0;exitDy=0;entryX=1;entryY=0.3333333333333333;entryDx=0;entryDy=0;entryPerimeter=0;startArrow=classic;startFill=1;" parent="VAXQIbRnAaRtHH-JixKg-1" source="VAXQIbRnAaRtHH-JixKg-7" target="VAXQIbRnAaRtHH-JixKg-2" edge="1">
          <mxGeometry width="50" height="50" relative="1" as="geometry">
            <mxPoint x="680" y="230" as="sourcePoint" />
            <mxPoint x="390" y="290" as="targetPoint" />
          </mxGeometry>
        </mxCell>
        <mxCell id="VAXQIbRnAaRtHH-JixKg-9" value="Просмотр карточки товара" style="ellipse;whiteSpace=wrap;html=1;" parent="VAXQIbRnAaRtHH-JixKg-1" vertex="1">
          <mxGeometry x="680" y="400" width="120" height="80" as="geometry" />
        </mxCell>
        <mxCell id="VAXQIbRnAaRtHH-JixKg-10" value="" style="endArrow=none;html=1;rounded=0;exitX=0;exitY=0.5;exitDx=0;exitDy=0;startArrow=classic;startFill=1;" parent="VAXQIbRnAaRtHH-JixKg-1" source="VAXQIbRnAaRtHH-JixKg-9" edge="1">
          <mxGeometry width="50" height="50" relative="1" as="geometry">
            <mxPoint x="690" y="340" as="sourcePoint" />
            <mxPoint x="380" y="280" as="targetPoint" />
          </mxGeometry>
        </mxCell>
        <mxCell id="VAXQIbRnAaRtHH-JixKg-12" value="" style="endArrow=none;html=1;rounded=0;entryX=0.5;entryY=0;entryDx=0;entryDy=0;entryPerimeter=0;startArrow=block;startFill=0;" parent="VAXQIbRnAaRtHH-JixKg-1" source="VAXQIbRnAaRtHH-JixKg-2" target="VAXQIbRnAaRtHH-JixKg-20" edge="1">
          <mxGeometry width="50" height="50" relative="1" as="geometry">
            <mxPoint x="115" y="280" as="sourcePoint" />
            <mxPoint x="115" y="585" as="targetPoint" />
            <Array as="points">
              <mxPoint x="115" y="290" />
            </Array>
          </mxGeometry>
        </mxCell>
        <mxCell id="VAXQIbRnAaRtHH-JixKg-20" value="Администратор" style="shape=umlActor;verticalLabelPosition=bottom;verticalAlign=top;html=1;outlineConnect=0;" parent="VAXQIbRnAaRtHH-JixKg-1" vertex="1">
          <mxGeometry x="100" y="540" width="30" height="60" as="geometry" />
        </mxCell>
        <mxCell id="VAXQIbRnAaRtHH-JixKg-21" value="Добавлять/удалять/изменять информацию о товаре" style="ellipse;whiteSpace=wrap;html=1;" parent="VAXQIbRnAaRtHH-JixKg-1" vertex="1">
          <mxGeometry x="360" y="520" width="150" height="80" as="geometry" />
        </mxCell>
        <mxCell id="VAXQIbRnAaRtHH-JixKg-22" value="" style="endArrow=none;html=1;rounded=0;exitX=0;exitY=0.5;exitDx=0;exitDy=0;startArrow=classic;startFill=1;entryX=1;entryY=0.3333333333333333;entryDx=0;entryDy=0;entryPerimeter=0;" parent="VAXQIbRnAaRtHH-JixKg-1" source="VAXQIbRnAaRtHH-JixKg-21" target="VAXQIbRnAaRtHH-JixKg-20" edge="1">
          <mxGeometry width="50" height="50" relative="1" as="geometry">
            <mxPoint x="610" y="530" as="sourcePoint" />
            <mxPoint x="300" y="470" as="targetPoint" />
          </mxGeometry>
        </mxCell>
        <mxCell id="Qfze_2wgdFLtyYGCqLN--0" style="orthogonalLoop=1;jettySize=auto;html=1;entryX=0;entryY=0.5;entryDx=0;entryDy=0;strokeColor=default;rounded=0;" parent="VAXQIbRnAaRtHH-JixKg-1" source="Qfze_2wgdFLtyYGCqLN--1" target="Qfze_2wgdFLtyYGCqLN--2" edge="1">
          <mxGeometry relative="1" as="geometry" />
        </mxCell>
        <mxCell id="Qfze_2wgdFLtyYGCqLN--4" style="edgeStyle=orthogonalEdgeStyle;rounded=0;orthogonalLoop=1;jettySize=auto;html=1;entryX=0;entryY=0.3333333333333333;entryDx=0;entryDy=0;entryPerimeter=0;endArrow=block;endFill=0;" parent="VAXQIbRnAaRtHH-JixKg-1" source="Qfze_2wgdFLtyYGCqLN--1" target="VAXQIbRnAaRtHH-JixKg-20" edge="1">
          <mxGeometry relative="1" as="geometry">
            <Array as="points">
              <mxPoint x="30" y="720" />
              <mxPoint x="30" y="560" />
            </Array>
          </mxGeometry>
        </mxCell>
        <mxCell id="Qfze_2wgdFLtyYGCqLN--1" value="Главный администратор" style="shape=umlActor;verticalLabelPosition=bottom;verticalAlign=top;html=1;outlineConnect=0;" parent="VAXQIbRnAaRtHH-JixKg-1" vertex="1">
          <mxGeometry x="100" y="690" width="30" height="60" as="geometry" />
        </mxCell>
        <mxCell id="Qfze_2wgdFLtyYGCqLN--2" value="Изменять роли пользователей" style="ellipse;whiteSpace=wrap;html=1;" parent="VAXQIbRnAaRtHH-JixKg-1" vertex="1">
          <mxGeometry x="330" y="680" width="150" height="80" as="geometry" />
        </mxCell>
      </root>
    </mxGraphModel>
  </diagram>
  <diagram id="HTqx4JGJF0QL1TDXYBHo" name="Страница 3">
    <mxGraphModel dx="1434" dy="844" grid="1" gridSize="10" guides="1" tooltips="1" connect="1" arrows="1" fold="1" page="1" pageScale="1" pageWidth="827" pageHeight="1169" math="0" shadow="0">
      <root>
        <mxCell id="0" />
        <mxCell id="1" parent="0" />
      </root>
    </mxGraphModel>
  </diagram>
</mxfile>
